HIERARCHY
ROOT Hips
{
	OFFSET 0.00000 0.00000 0.00000
	CHANNELS 6 Xposition Yposition Zposition Zrotation Yrotation Xrotation 
	JOINT LHipJoint
	{
		OFFSET 0 0 0
		CHANNELS 3 Zrotation Yrotation Xrotation
		JOINT LeftHip
		{
			OFFSET 1.60223 -1.58443 0.78595
			CHANNELS 3 Zrotation Yrotation Xrotation
			JOINT LeftKnee
			{
				OFFSET 2.21690 -6.09089 0.00000
				CHANNELS 3 Zrotation Yrotation Xrotation
				JOINT LeftAnkle
				{
					OFFSET 2.34805 -6.45122 0.00000
					CHANNELS 3 Zrotation Yrotation Xrotation
					JOINT LeftToe
					{
						OFFSET 0.35452 -0.97402 1.38549
						CHANNELS 3 Zrotation Yrotation Xrotation
						End Site
						{
							OFFSET 0.00000 -0.00000 0.82816
						}
					}
				}
			}
		}
	}
	JOINT RHipJoint
	{
		OFFSET 0 0 0
		CHANNELS 3 Zrotation Yrotation Xrotation
		JOINT RightHip
		{
			OFFSET -1.56524 -1.58443 0.78595
			CHANNELS 3 Zrotation Yrotation Xrotation
			JOINT RightKnee
			{
				OFFSET -2.15558 -5.92241 0.00000
				CHANNELS 3 Zrotation Yrotation Xrotation
				JOINT RightAnkle
				{
					OFFSET -2.35077 -6.45870 0.00000
					CHANNELS 3 Zrotation Yrotation Xrotation
					JOINT RightToe
					{
						OFFSET -0.26910 -0.73935 1.33295
						CHANNELS 3 Zrotation Yrotation Xrotation
						End Site
						{
							OFFSET -0.00000 -0.00000 0.75962
						}
					}
				}
			}
		}
	}
	JOINT lowerback
	{
		OFFSET 0 0 0
		CHANNELS 3 Zrotation Yrotation Xrotation
		JOINT Chest
		{
			OFFSET -0.05489 1.97104 -0.02993
			CHANNELS 3 Zrotation Yrotation Xrotation
			JOINT Chest2
			{
				OFFSET -0.00702 1.94230 0.13626
				CHANNELS 3 Zrotation Yrotation Xrotation
				JOINT lowerneck
				{
					OFFSET 0 0 0
					CHANNELS 3 Zrotation Yrotation Xrotation
					JOINT Neck
					{
						OFFSET -0.07858 1.62869 -0.02510
						CHANNELS 3 Zrotation Yrotation Xrotation
						JOINT Head
						{
							OFFSET 0.13978 1.59213 -0.29859
							CHANNELS 3 Zrotation Yrotation Xrotation
							End Site
							{
								OFFSET 0.05353 1.64420 -0.10000
							}
						}
					}
				}
				JOINT LeftCollar
				{
					OFFSET 0 0 0
					CHANNELS 3 Zrotation Yrotation Xrotation
					JOINT LeftShoulder
					{
						OFFSET 3.48263 1.15278 0.52941
CHANNELS 3 Zrotation Xrotation Yrotation
						JOINT LeftElbow
						{
OFFSET 0 -4.592070 -0.000000
CHANNELS 3 Zrotation Xrotation Yrotation
							JOINT LeftWrist
							{
OFFSET 0 -2.981090 -0.000000
CHANNELS 3 Zrotation Xrotation Yrotation
								JOINT lhand
								{
									OFFSET 0 0 0
CHANNELS 3 Zrotation Xrotation Yrotation
									JOINT LFingers
									{
OFFSET 0 -0.480200 -0.000000
CHANNELS 3 Zrotation Xrotation Yrotation
										End Site
										{
OFFSET 0 -0.387150 -0.000000
										}
									}
								}
								JOINT LThumb
								{
OFFSET 0 0.000000 0.000000
CHANNELS 3 Zrotation Xrotation Yrotation
									End Site
									{
OFFSET 0 -0.393060 0.393060
									}
								}
							}
						}
					}
				}
				JOINT RightCollar
				{
					OFFSET 0 0 0
					CHANNELS 3 Zrotation Yrotation Xrotation
					JOINT RightShoulder
					{
						OFFSET -3.52496 1.12722 0.24548
CHANNELS 3 Zrotation Xrotation Yrotation
						JOINT RightElbow
						{
OFFSET 0 -4.765080 -0.000000
CHANNELS 3 Zrotation Xrotation Yrotation
							JOINT RightWrist
							{
OFFSET 0 -2.789020 -0.000000
CHANNELS 3 Zrotation Xrotation Yrotation
								JOINT rhand
								{
									OFFSET 0 0 0
CHANNELS 3 Zrotation Xrotation Yrotation
									JOINT RFingers
									{
OFFSET 0 -0.721300 -0.000000
CHANNELS 3 Zrotation Xrotation Yrotation
										End Site
										{
OFFSET 0 -0.581530 -0.000000
										}
									}
								}
								JOINT RThumb
								{
OFFSET 0 0.000000 0.000000
CHANNELS 3 Zrotation Xrotation Yrotation
									End Site
									{
OFFSET 0 -0.590410 0.590410
									}
								}
							}
						}
					}
				}
			}
		}
	}
}
MOTION
Frames: 8
Frame Time: 0.008333333333333333
15.984855 16.019659 -2.618276 52.219460 981.208000 -44.872726 0.000000 0.000000 0.000000 -6.878367 -15.219115 -31.711414 10.689129 17.777080 61.764552 0.627988 -4.385850 -14.124208 2.545512 -9.920257 -28.718854 0.000000 0.000000 0.000000 31.825586 -8.951005 -17.967220 -1.444575 -7.598189 21.500042 -1.161338 -13.182149 -28.952012 -0.227818 3.062103 -8.452430 8.676170 7.695220 6.064080 -1.137630 11.141167 -6.979380 -7.333804 4.754133 -9.005267 -14.364859 -12.018058 5.544909 14.798555 -16.936229 -1.591147 6.473671 -8.670749 1.143635 0.000000 0.000000 0.000000 -1.855298 27.272988 15.980152 50.985958 -53.383703 26.963986 30.769252 35.272914 -29.849510 0.000000 0.000000 0.000000 -7.125000 0.000000 0.000000 -0.359120 63.713862 0.174753 0.000000 0.000000 0.000000 -5.653939 -24.899857 44.116309 -51.790563 -53.690404 -27.611218 -5.759610 -6.802136 -41.187416 0.000000 0.000000 0.000000 7.125000 0.000000 0.000000 15.216923 -10.086402 18.243328
16.695707 15.983290 -2.736567 117.381037 982.566496 -110.348538 0.000000 0.000000 0.000000 -8.561332 -11.528915 -24.402745 11.176759 18.020047 63.353633 0.531098 -2.191047 -13.188516 2.617182 -10.047359 -29.130730 0.000000 0.000000 0.000000 32.502055 -6.630569 -19.673796 -1.527237 -7.802777 22.116659 -1.437229 -17.532910 -34.695013 -0.027949 -1.056652 2.904868 6.396957 7.878018 4.950205 -0.682757 11.107722 -7.537962 -5.544695 4.873908 -9.465182 -12.930090 -13.753160 7.925837 14.857898 -19.294876 -3.390526 6.394688 -9.949091 0.449248 0.000000 0.000000 0.000000 1.466596 29.130313 21.525166 53.305555 -54.244300 28.835913 22.844270 32.459641 -33.202172 0.000000 0.000000 0.000000 -7.125000 0.000000 0.000000 -12.339698 64.956404 6.004745 0.000000 0.000000 0.000000 -5.940547 -26.505124 34.045575 -57.506302 -55.601586 -32.276060 -3.770077 -5.596616 -41.936307 0.000000 0.000000 0.000000 7.125000 0.000000 0.000000 16.256554 -10.561280 19.692042
17.396073 15.931954 -2.705837 140.051718 977.340529 -132.461275 0.000000 0.000000 0.000000 -6.772509 -9.870294 -15.422792 9.355237 17.026399 57.304269 0.349459 -3.333526 -10.500057 2.698565 -10.189756 -29.593903 0.000000 0.000000 0.000000 34.812854 -9.450103 -25.154131 -1.579486 -7.928930 22.498337 -1.185742 -17.755982 -33.467519 -0.117095 -2.193387 6.040792 7.095260 7.722679 3.137993 0.428346 10.888501 -8.178264 -4.501135 4.751164 -9.246477 -12.740954 -14.426077 8.830382 14.051433 -20.227105 -3.871680 6.183840 -10.415944 0.186878 0.000000 0.000000 0.000000 4.528846 30.423149 25.940415 56.668985 -55.352384 31.585316 17.514780 30.611748 -37.043131 0.000000 0.000000 0.000000 -7.125000 0.000000 0.000000 -22.579050 67.043055 12.241728 0.000000 0.000000 0.000000 -4.520745 -31.377030 30.882972 -59.673846 -56.222120 -34.069960 1.294437 -9.264318 -38.682006 0.000000 0.000000 0.000000 7.125000 0.000000 0.000000 18.572753 -6.965547 21.799073
18.189158 15.909719 -2.623451 150.632533 977.445636 -143.559671 0.000000 0.000000 0.000000 -10.307474 -7.134189 -4.111544 5.523657 13.929510 42.997648 0.655474 -4.035860 -14.344543 4.095763 -12.286038 -36.752485 0.000000 0.000000 0.000000 32.001466 -8.648779 -28.558695 -1.813025 -8.464922 24.135513 -0.800680 -18.906455 -32.357934 -0.308347 -3.566499 9.860577 4.023061 8.780920 4.179354 0.334363 12.160213 -8.496191 -3.356598 5.528168 -10.669002 -11.636846 -15.235280 9.543295 13.347073 -21.239006 -4.204536 5.879866 -10.931775 -0.083664 0.000000 0.000000 0.000000 7.743383 30.994139 25.861836 63.832586 -57.242147 37.548780 20.512448 29.969138 -36.935215 0.000000 0.000000 0.000000 -7.125000 0.000000 0.000000 -18.885473 67.846988 10.510721 0.000000 0.000000 0.000000 -2.578950 -37.312298 28.130707 -54.624955 -54.693962 -29.910839 1.804072 -8.022925 -38.145156 0.000000 0.000000 0.000000 7.125000 0.000000 0.000000 18.812625 -6.416228 21.953155
19.116331 15.956496 -2.459939 165.666644 977.540169 -160.173639 0.000000 0.000000 0.000000 -15.614892 -6.370985 3.227090 2.602806 10.013344 29.028281 1.521783 -3.293002 -22.486517 3.493712 -11.449717 -33.817726 0.000000 0.000000 0.000000 27.123425 -7.929368 -30.324072 -1.936142 -8.731690 24.959606 -0.121811 -21.638706 -31.356252 -0.618103 -5.027068 13.986659 1.356748 9.212550 6.794022 0.433751 12.596734 -7.366405 -2.327569 5.929716 -11.522341 -10.807312 -15.636319 9.841972 12.777610 -21.571668 -5.973021 5.739395 -11.088026 -0.764021 0.000000 0.000000 0.000000 7.807147 29.932367 23.710478 72.917881 -58.863149 45.263431 21.186346 29.847406 -35.923230 0.000000 0.000000 0.000000 -7.125000 0.000000 0.000000 -16.928225 67.102539 9.116783 0.000000 0.000000 0.000000 0.046223 -43.323314 25.934052 -46.513148 -51.480322 -23.419198 0.714265 -7.269156 -38.325470 0.000000 0.000000 0.000000 7.125000 0.000000 0.000000 18.270799 -6.672642 21.324542
20.125117 15.969668 -2.284601 186.246541 971.982846 -180.717768 0.000000 0.000000 0.000000 -21.892461 -7.997013 2.356794 1.797733 8.431007 24.031147 1.618621 -3.823293 -23.128693 2.226344 -9.317591 -26.797511 0.000000 0.000000 0.000000 18.058092 -5.204712 -33.138701 -2.363812 -9.583909 27.641189 0.699465 -27.478361 -34.756236 -1.150467 -6.810416 19.154891 -1.791978 7.480188 7.895897 0.397413 9.866492 -6.014421 -0.332518 4.874249 -11.262467 -12.209258 -15.190208 9.761963 12.195393 -21.094416 -6.563052 5.792449 -10.785702 -0.905919 0.000000 0.000000 0.000000 5.809150 28.092144 18.240533 82.961281 -59.805010 53.908539 22.613545 30.121244 -34.924387 0.000000 0.000000 0.000000 -7.125000 0.000000 0.000000 -14.160662 66.571368 7.425977 0.000000 0.000000 0.000000 2.040829 -45.467434 23.298909 -39.205479 -47.583937 -17.852891 0.154007 -2.984824 -36.624644 0.000000 0.000000 0.000000 7.125000 0.000000 0.000000 17.936705 -5.101338 20.449388
21.105970 15.871494 -2.103449 191.173476 963.262057 -187.408235 0.000000 0.000000 0.000000 -25.980935 -9.384995 0.587815 1.838621 8.521131 24.308719 1.449208 -8.935350 -21.581740 1.281159 -7.169293 -20.219467 0.000000 0.000000 0.000000 9.836030 -7.268301 -33.879582 -3.102112 -10.857264 31.801481 0.857049 -26.990579 -33.007982 -0.450591 -4.232634 11.743895 -1.334459 6.416984 10.460677 -0.406781 8.383641 -4.970196 -1.389055 4.074132 -11.366253 -11.662128 -16.512182 11.344461 11.444817 -22.965774 -6.653978 5.600573 -11.729895 -1.108738 0.000000 0.000000 0.000000 8.247338 22.230724 4.091579 92.123101 -59.980576 61.838471 22.777704 28.079362 -32.683169 0.000000 0.000000 0.000000 -7.125000 0.000000 0.000000 -12.001181 64.428064 5.689138 0.000000 0.000000 0.000000 -3.020941 -43.144395 9.751134 -32.589669 -43.002406 -13.144779 1.282138 2.053345 -36.677248 0.000000 0.000000 0.000000 7.125000 0.000000 0.000000 18.516119 -5.061507 21.171586
21.990588 15.803799 -1.941931 191.549628 956.010940 -190.402104 0.000000 0.000000 0.000000 -28.539801 -7.960861 -1.945441 2.211486 9.293039 26.716608 0.662207 -15.855696 -17.133913 0.675124 -5.250665 -14.625648 0.000000 0.000000 0.000000 3.356912 -9.612631 -31.947967 -4.406688 -12.672516 38.171005 0.678913 -22.971669 -27.559693 -0.123381 -2.251081 6.200571 0.418970 5.111903 12.651918 -0.273918 6.899995 -3.612835 -2.032649 3.248215 -10.930119 -14.082275 -17.273885 12.975228 11.310374 -24.529608 -6.344026 5.870458 -12.496034 -0.826363 0.000000 0.000000 0.000000 5.244565 10.651208 -7.503767 98.034852 -59.753796 66.952588 26.142418 27.826744 -30.379526 0.000000 0.000000 0.000000 -7.125000 0.000000 0.000000 -6.365262 63.015369 2.790028 0.000000 0.000000 0.000000 -10.865249 -37.122397 -4.293245 -28.499708 -39.572222 -10.440492 -3.403574 0.560902 -43.330581 0.000000 0.000000 0.000000 7.125000 0.000000 0.000000 16.554800 -11.847771 20.368105
